<svg width="26" height="23" viewBox="0 0 26 23" fill="none" xmlns="http://www.w3.org/2000/svg">
<path d="M4.02452 17.6192L7.00613 14.5302L10.191 17.8298C10.2488 17.8892 10.3268 17.9225 10.4081 17.9225C10.4894 17.9225 10.5675 17.8892 10.6252 17.8298L12.364 16.0278L15.1428 18.9073C15.2005 18.9667 15.2786 19 15.3599 19C15.4412 19 15.5192 18.9667 15.577 18.9073L21.8769 12.3805V14.2792C21.8803 14.3611 21.9141 14.4384 21.9713 14.4951C22.0284 14.5518 22.1045 14.5835 22.1836 14.5835C22.2627 14.5835 22.3388 14.5518 22.3959 14.4951C22.4531 14.4384 22.4869 14.3611 22.4903 14.2792V11.6091C22.49 11.5806 22.4862 11.5523 22.4789 11.5248V11.5171L22.4737 11.5023C22.4737 11.497 22.4703 11.4916 22.468 11.4863L22.4651 11.4803C22.4503 11.4444 22.4289 11.4118 22.4021 11.3842C22.3727 11.3536 22.3376 11.3296 22.2989 11.3135C22.2602 11.2975 22.2187 11.2899 22.177 11.2911H19.6089C19.5299 11.2946 19.4552 11.3296 19.4005 11.3888C19.3458 11.448 19.3152 11.5268 19.3152 11.6088C19.3152 11.6908 19.3458 11.7696 19.4005 11.8288C19.4552 11.888 19.5299 11.923 19.6089 11.9265H21.4417L15.3599 18.2333L12.7981 15.5786L23.8866 4.08893V5.98766C23.89 6.06956 23.9238 6.14692 23.981 6.20362C24.0381 6.26032 24.1142 6.29197 24.1933 6.29197C24.2724 6.29197 24.3485 6.26032 24.4056 6.20362C24.4628 6.14692 24.4966 6.06956 24.5 5.98766V3.31757C24.5 3.28926 24.4962 3.2611 24.4885 3.23391V3.22619L24.4834 3.21136L24.4782 3.19534L24.4754 3.18941C24.4514 3.13178 24.4113 3.08292 24.3603 3.04918C24.3092 3.01543 24.2495 2.99834 24.189 3.00013H21.6198C21.5407 3.00367 21.466 3.03869 21.4113 3.09789C21.3566 3.15709 21.326 3.2359 21.326 3.31787C21.326 3.39984 21.3566 3.47864 21.4113 3.53785C21.466 3.59705 21.5407 3.63207 21.6198 3.63561H23.4525L12.364 15.1289L9.17905 11.8292C9.15058 11.7996 9.11675 11.7761 9.0795 11.7601C9.04225 11.7441 9.00232 11.7358 8.96198 11.7358C8.92165 11.7358 8.88171 11.7441 8.84446 11.7601C8.80722 11.7761 8.77339 11.7996 8.74492 11.8292L7.00613 13.6307L5.13962 11.6963C5.08197 11.6367 5.00382 11.6032 4.92235 11.6033C4.84089 11.6033 4.76278 11.6369 4.70521 11.6966C4.64764 11.7563 4.61533 11.8373 4.61538 11.9217C4.61543 12.0061 4.64785 12.087 4.70549 12.1467L6.572 14.0804L3.58983 17.1694C3.56132 17.199 3.53872 17.2341 3.52331 17.2727C3.50789 17.3113 3.49997 17.3527 3.5 17.3945C3.50003 17.4363 3.508 17.4777 3.52346 17.5163C3.53892 17.5549 3.56157 17.5899 3.59011 17.6195C3.61866 17.649 3.65253 17.6724 3.68981 17.6884C3.72709 17.7044 3.76704 17.7126 3.80738 17.7125C3.84772 17.7125 3.88766 17.7042 3.92491 17.6882C3.96217 17.6722 3.99602 17.6487 4.02452 17.6192ZM8.96198 12.5033L11.9304 15.5786L10.4081 17.1552L7.44025 14.0804L8.96198 12.5033Z" fill="black"/>
<path d="M25.5 23C25.7761 23 26 22.7761 26 22.5C26 22.2239 25.7761 22 25.5 22V23ZM25.5 22L0.5 22V23L25.5 23V22Z" fill="black"/>
<path d="M1.5 1C1.5 0.723858 1.27614 0.5 1 0.5C0.723858 0.5 0.5 0.723858 0.5 1H1.5ZM0.5 1L0.5 23H1.5L1.5 1H0.5Z" fill="black"/>
</svg>
