<svg width="24" height="22" viewBox="0 0 24 22" fill="none" xmlns="http://www.w3.org/2000/svg">
<g clip-path="url(#clip0_1543_119)">
<path d="M11.9995 22C11.8937 22 11.7879 21.9639 11.7032 21.8917C11.3365 21.5801 2.70488 14.1999 0.508886 8.47689C0.171284 7.71535 0 6.90605 0 6.07143C0 2.72373 2.79267 0 6.22533 0C8.84401 0 11.0903 1.58493 12.0086 3.8229C12.9374 1.60738 15.1722 0.0422589 17.7742 0.0422589C21.2071 0.0422589 24 2.76576 24 6.11369C24 6.23453 23.9953 6.35426 23.988 6.47355C23.9689 11.8994 12.7736 21.4859 12.2963 21.8917C12.2112 21.9639 12.1054 22 11.9995 22ZM6.22511 0.880396C3.29027 0.880396 0.902454 3.20926 0.902454 6.07143C0.902454 6.78852 1.05004 7.48337 1.34116 8.13684C1.34454 8.14388 1.34725 8.15115 1.35018 8.15841C3.23882 13.0966 10.4442 19.6049 11.9993 20.9706C13.7927 19.3973 23.0849 11.0237 23.0849 6.45969C23.0849 6.45044 23.0851 6.44142 23.0858 6.43239C23.0924 6.32697 23.0969 6.22066 23.0969 6.11369C23.0969 3.2513 20.7091 0.922655 17.7738 0.922655C14.8385 0.922655 12.4509 3.2513 12.4509 6.11369C12.4509 6.13966 12.452 6.16497 12.4529 6.19073L12.4552 6.25676C12.4577 6.37539 12.4114 6.48962 12.3263 6.57414C12.1562 6.74383 11.8452 6.74317 11.6755 6.57282C11.5906 6.48742 11.5401 6.37209 11.5439 6.25323L11.5453 6.21274C11.5469 6.16563 11.5484 6.11875 11.5484 6.07165C11.5482 3.20904 9.16039 0.880396 6.22511 0.880396Z" fill="black"/>
</g>
<defs>
<clipPath id="clip0_1543_119">
<rect width="24" height="22" fill="white"/>
</clipPath>
</defs>
</svg>
