<svg width="19" height="18" viewBox="0 0 19 18" fill="none" xmlns="http://www.w3.org/2000/svg">
<path d="M18.6682 18H10.3318C10.1486 18 10 17.8443 10 17.6522C10 17.4601 10.1486 17.3043 10.3318 17.3043H18.3364V0.695652H10.3318C10.1486 0.695652 10 0.539913 10 0.347826C10 0.155739 10.1486 0 10.3318 0H18.6682C18.8514 0 19 0.155739 19 0.347826V17.6522C19 17.8443 18.8514 18 18.6682 18Z" fill="black"/>
<path d="M0.0122108 8.91124C0.0292854 8.85018 0.0638189 8.79387 0.113014 8.74853L4.068 5.10413C4.21872 4.96529 4.46297 4.96529 4.61369 5.10413C4.76436 5.24298 4.76436 5.46809 4.61369 5.60693L1.31731 8.64444H12.7331C12.7555 8.64444 12.7773 8.64658 12.7986 8.64996C12.9548 8.24533 13.3739 7.95556 13.8666 7.95556C14.4926 7.95556 15 8.42316 15 9C15 9.57684 14.4926 10.0444 13.8666 10.0444C13.3739 10.0444 12.9548 9.75467 12.7986 9.35004C12.7773 9.35342 12.7555 9.35556 12.7331 9.35556H1.3174L4.61369 12.393C4.76436 12.5319 4.76436 12.757 4.61369 12.8959C4.5383 12.9653 4.43962 13 4.34084 13C4.24206 13 4.14333 12.9653 4.068 12.8959L0.113014 9.25142C0.0155392 9.16164 -0.0215511 9.03187 0.0122108 8.91124ZM13.8666 9.33333C14.066 9.33333 14.2283 9.18382 14.2283 9C14.2283 8.81618 14.066 8.66667 13.8666 8.66667C13.6671 8.66667 13.5048 8.81618 13.5048 9C13.5048 9.18382 13.6671 9.33333 13.8666 9.33333Z" fill="black"/>
</svg>
