<svg width="23" height="22" viewBox="0 0 23 22" fill="none" xmlns="http://www.w3.org/2000/svg">
<path d="M22.5576 22H11.4424C11.1981 22 11 21.8097 11 21.5749C11 21.3401 11.1981 21.1498 11.4424 21.1498H22.1152V0.850242H11.4424C11.1981 0.850242 11 0.659894 11 0.425121C11 0.190348 11.1981 0 11.4424 0H22.5576C22.8019 0 23 0.190348 23 0.425121V21.5749C23 21.8097 22.8019 22 22.5576 22Z" fill="black"/>
<path d="M17.9853 10.8891C17.9649 10.8127 17.9234 10.7423 17.8644 10.6857L13.1184 6.13017C12.9375 5.95661 12.6444 5.95661 12.4636 6.13017C12.2828 6.30372 12.2828 6.58511 12.4636 6.75867L16.4192 10.5556H2.72026C2.69346 10.5556 2.6673 10.5582 2.64172 10.5624C2.45425 10.0567 1.95135 9.69444 1.36013 9.69444C0.608932 9.69444 0 10.2789 0 11C0 11.7211 0.608932 12.3056 1.36013 12.3056C1.95135 12.3056 2.45425 11.9433 2.64172 11.4376C2.6673 11.4418 2.69346 11.4444 2.72026 11.4444H16.4191L12.4636 15.2413C12.2828 15.4149 12.2828 15.6962 12.4636 15.8698C12.554 15.9566 12.6725 16 12.791 16C12.9095 16 13.028 15.9566 13.1184 15.8698L17.8644 11.3143C17.9814 11.2021 18.0259 11.0398 17.9853 10.8891ZM1.36013 11.4167C1.12075 11.4167 0.926044 11.2298 0.926044 11C0.926044 10.7702 1.12075 10.5833 1.36013 10.5833C1.59951 10.5833 1.79421 10.7702 1.79421 11C1.79421 11.2298 1.59951 11.4167 1.36013 11.4167Z" fill="black"/>
</svg>
