<svg width="20" height="20" viewBox="0 0 20 20" fill="none" xmlns="http://www.w3.org/2000/svg">
<path fill-rule="evenodd" clip-rule="evenodd" d="M16.4771 1.875C16.2607 1.875 16.0464 1.91762 15.8464 2.00044C15.6465 2.08326 15.4648 2.20464 15.3118 2.35767L13.8454 3.82403L16.176 6.15457L17.6423 4.68821C17.7954 4.53518 17.9167 4.35351 17.9996 4.15358C18.0824 3.95364 18.125 3.73935 18.125 3.52294C18.125 3.30653 18.0824 3.09223 17.9996 2.8923C17.9167 2.69236 17.7954 2.51069 17.6423 2.35767C17.4893 2.20464 17.3076 2.08326 17.1077 2.00044C16.9078 1.91762 16.6935 1.875 16.4771 1.875ZM14.8501 7.48039L12.5196 5.14985L3.14761 14.5218L2.27366 17.7263L5.47815 16.8524L14.8501 7.48039ZM15.1289 0.268168C15.5563 0.0911232 16.0144 0 16.4771 0C16.9397 0 17.3978 0.0911233 17.8252 0.268168C18.2527 0.445212 18.641 0.704709 18.9682 1.03184C19.2953 1.35898 19.5548 1.74734 19.7318 2.17477C19.9089 2.60219 20 3.0603 20 3.52294C20 3.98557 19.9089 4.44368 19.7318 4.87111C19.5548 5.29853 19.2953 5.6869 18.9682 6.01403L6.62793 18.3543C6.51257 18.4696 6.36909 18.5529 6.21169 18.5958L1.18419 19.9669C0.85962 20.0555 0.512499 19.9633 0.274609 19.7254C0.0367183 19.4875 -0.0554645 19.1404 0.0330556 18.8158L1.40419 13.7883C1.44712 13.6309 1.53038 13.4874 1.64574 13.3721L13.986 1.03184C14.3131 0.704709 14.7015 0.445212 15.1289 0.268168Z" fill="black" fill-opacity="0.7"/>
</svg>
