<svg width="129" height="192" viewBox="0 0 129 192" fill="none" xmlns="http://www.w3.org/2000/svg">
<g clip-path="url(#clip0_988_257)">
<rect width="89" height="140" transform="translate(20 32)" fill="white" fill-opacity="0.45"/>
<path d="M40.5987 51.532C40.5427 51.532 40.4907 51.524 40.4427 51.508C40.2907 51.476 40.1827 51.384 40.1187 51.232C40.0707 51.096 40.0827 50.944 40.1547 50.776C40.2347 50.608 40.3387 50.42 40.4667 50.212C40.5147 50.14 40.5587 50.068 40.5987 49.996C40.6467 49.916 40.6867 49.844 40.7187 49.78C40.7347 49.756 40.7467 49.736 40.7547 49.72C40.7627 49.696 40.7707 49.676 40.7787 49.66C40.5387 49.62 40.2587 49.612 39.9387 49.636C39.6267 49.652 39.2747 49.712 38.8827 49.816C38.5387 49.904 38.1667 50.02 37.7667 50.164C37.3747 50.3 36.9587 50.464 36.5187 50.656C36.4307 50.688 36.3427 50.688 36.2547 50.656C36.1667 50.624 36.1027 50.564 36.0627 50.476C36.0147 50.388 36.0107 50.296 36.0507 50.2C36.0907 50.096 36.1547 50.028 36.2427 49.996C36.6907 49.796 37.1187 49.624 37.5267 49.48C37.9427 49.328 38.3347 49.208 38.7027 49.12C39.6867 48.872 40.4907 48.832 41.1147 49C41.2987 49.048 41.4267 49.16 41.4987 49.336C41.5707 49.512 41.5547 49.708 41.4507 49.924C41.3467 50.14 41.2227 50.364 41.0787 50.596C41.0707 50.612 41.0587 50.632 41.0427 50.656C41.0267 50.68 41.0107 50.708 40.9947 50.74C41.1787 50.7 41.4507 50.62 41.8107 50.5C42.1707 50.38 42.6667 50.204 43.2987 49.972C43.3867 49.94 43.4747 49.948 43.5627 49.996C43.6587 50.036 43.7227 50.104 43.7547 50.2C43.7947 50.288 43.7947 50.38 43.7547 50.476C43.7147 50.564 43.6427 50.628 43.5387 50.668C43.1707 50.796 42.8347 50.912 42.5307 51.016C42.2267 51.12 41.9547 51.208 41.7147 51.28C41.3947 51.376 41.1507 51.444 40.9827 51.484C40.8147 51.516 40.6867 51.532 40.5987 51.532ZM44.4131 52.336C44.3571 52.336 44.3011 52.328 44.2451 52.312C44.1891 52.304 44.1331 52.296 44.0771 52.288C43.9331 52.248 43.8331 52.164 43.7771 52.036C43.7051 51.876 43.7051 51.684 43.7771 51.46C43.8571 51.228 43.9851 50.932 44.1611 50.572C44.1931 50.508 44.2251 50.436 44.2571 50.356C44.2971 50.276 44.3331 50.2 44.3651 50.128C44.2611 50.168 44.1491 50.236 44.0291 50.332C43.9171 50.42 43.8011 50.512 43.6811 50.608C43.6011 50.664 43.5131 50.688 43.4171 50.68C43.3131 50.664 43.2291 50.62 43.1651 50.548C43.1091 50.468 43.0891 50.38 43.1051 50.284C43.1131 50.188 43.1531 50.104 43.2251 50.032C43.3371 49.952 43.4531 49.864 43.5731 49.768C43.7011 49.672 43.8291 49.592 43.9571 49.528C44.2851 49.36 44.5851 49.316 44.8571 49.396C44.9851 49.42 45.0811 49.5 45.1451 49.636C45.2091 49.764 45.2051 49.924 45.1331 50.116C45.0691 50.308 44.9571 50.568 44.7971 50.896C44.7571 50.992 44.7131 51.088 44.6651 51.184C44.6251 51.28 44.5851 51.372 44.5451 51.46C44.5371 51.492 44.5251 51.52 44.5091 51.544C44.5011 51.568 44.4931 51.592 44.4851 51.616C44.6531 51.592 44.8971 51.508 45.2171 51.364C45.5451 51.212 45.9851 50.916 46.5371 50.476C46.8331 50.244 47.1011 50.02 47.3411 49.804C47.5811 49.58 47.7731 49.396 47.9171 49.252C48.0611 49.108 48.1331 49.036 48.1331 49.036C48.2291 48.924 48.3451 48.888 48.4811 48.928C48.5451 48.936 48.5971 48.964 48.6371 49.012C48.6771 49.052 48.7091 49.092 48.7331 49.132C48.7891 49.244 48.7931 49.376 48.7451 49.528C48.7051 49.672 48.6171 49.908 48.4811 50.236C48.4331 50.34 48.3851 50.444 48.3371 50.548C48.2971 50.652 48.2571 50.748 48.2171 50.836C48.2091 50.868 48.2011 50.896 48.1931 50.92C48.1931 50.936 48.1891 50.952 48.1811 50.968C48.3331 50.944 48.4931 50.88 48.6611 50.776C48.8371 50.664 49.0051 50.54 49.1651 50.404C49.3331 50.268 49.4731 50.152 49.5851 50.056C49.6651 49.984 49.7531 49.952 49.8491 49.96C49.9451 49.968 50.0291 50.008 50.1011 50.08C50.1651 50.16 50.1931 50.248 50.1851 50.344C50.1851 50.44 50.1451 50.524 50.0651 50.596C49.8171 50.812 49.5611 51.016 49.2971 51.208C49.0411 51.4 48.7811 51.544 48.5171 51.64C48.2611 51.728 48.0011 51.74 47.7371 51.676C47.6091 51.62 47.5171 51.54 47.4611 51.436C47.4131 51.324 47.3971 51.2 47.4131 51.064C47.4371 50.928 47.4851 50.76 47.5571 50.56C47.4691 50.64 47.3771 50.716 47.2811 50.788C47.1931 50.86 47.0971 50.94 46.9931 51.028C45.8891 51.9 45.0291 52.336 44.4131 52.336ZM51.3518 52.36C51.3118 52.36 51.2718 52.356 51.2318 52.348C51.1918 52.348 51.1478 52.344 51.0998 52.336C51.0038 52.304 50.9238 52.236 50.8598 52.132C50.8278 52.068 50.8118 51.98 50.8118 51.868C50.8118 51.756 50.8478 51.572 50.9198 51.316C50.9918 51.06 51.1078 50.68 51.2678 50.176C51.0918 50.24 50.8878 50.316 50.6558 50.404C50.4318 50.492 50.1998 50.58 49.9598 50.668C49.8718 50.7 49.7838 50.696 49.6958 50.656C49.5998 50.608 49.5318 50.536 49.4918 50.44C49.4598 50.352 49.4678 50.264 49.5158 50.176C49.5558 50.08 49.6238 50.012 49.7198 49.972C50.0638 49.844 50.3838 49.724 50.6798 49.612C50.9838 49.5 51.2318 49.408 51.4238 49.336C51.6158 49.264 51.7118 49.228 51.7118 49.228C51.7918 49.196 51.8678 49.192 51.9398 49.216C52.0438 49.24 52.1198 49.3 52.1678 49.396C52.2078 49.468 52.2198 49.532 52.2038 49.588C52.1958 49.644 52.1838 49.704 52.1678 49.768C52.1518 49.8 52.1398 49.836 52.1318 49.876C52.1238 49.908 52.1118 49.948 52.0958 49.996C52.0398 50.132 51.9798 50.3 51.9158 50.5C51.8598 50.692 51.7998 50.888 51.7358 51.088C51.6958 51.2 51.6638 51.296 51.6398 51.376C51.6158 51.456 51.5958 51.528 51.5798 51.592C51.7318 51.56 51.9518 51.468 52.2398 51.316C52.4878 51.18 52.7518 51.024 53.0318 50.848C53.3198 50.664 53.6118 50.472 53.9078 50.272C53.9718 50.232 54.0358 50.192 54.0998 50.152C54.1718 50.112 54.2358 50.068 54.2918 50.02C54.3798 49.964 54.4718 49.948 54.5678 49.972C54.6718 49.988 54.7518 50.04 54.8078 50.128C54.8638 50.208 54.8798 50.296 54.8558 50.392C54.8398 50.488 54.7878 50.564 54.6998 50.62C54.6358 50.668 54.5678 50.716 54.4958 50.764C54.4318 50.804 54.3638 50.848 54.2918 50.896C53.9878 51.096 53.6918 51.288 53.4038 51.472C53.1158 51.656 52.8438 51.816 52.5878 51.952C52.0678 52.224 51.6558 52.36 51.3518 52.36ZM58.7276 51.532C58.6716 51.532 58.6196 51.524 58.5716 51.508C58.4196 51.476 58.3116 51.384 58.2476 51.232C58.1996 51.096 58.2116 50.944 58.2836 50.776C58.3636 50.608 58.4676 50.42 58.5956 50.212C58.6436 50.14 58.6876 50.068 58.7276 49.996C58.7756 49.916 58.8156 49.844 58.8476 49.78C58.8636 49.756 58.8756 49.736 58.8836 49.72C58.8916 49.696 58.8996 49.676 58.9076 49.66C58.6676 49.62 58.3876 49.612 58.0676 49.636C57.7556 49.652 57.4036 49.712 57.0116 49.816C56.6676 49.904 56.2956 50.02 55.8956 50.164C55.5036 50.3 55.0876 50.464 54.6476 50.656C54.5596 50.688 54.4716 50.688 54.3836 50.656C54.2956 50.624 54.2316 50.564 54.1916 50.476C54.1436 50.388 54.1396 50.296 54.1796 50.2C54.2196 50.096 54.2836 50.028 54.3716 49.996C54.8196 49.796 55.2476 49.624 55.6556 49.48C56.0716 49.328 56.4636 49.208 56.8316 49.12C57.8156 48.872 58.6196 48.832 59.2436 49C59.4276 49.048 59.5556 49.16 59.6276 49.336C59.6996 49.512 59.6836 49.708 59.5796 49.924C59.4756 50.14 59.3516 50.364 59.2076 50.596C59.1996 50.612 59.1876 50.632 59.1716 50.656C59.1556 50.68 59.1396 50.708 59.1236 50.74C59.3076 50.7 59.5796 50.62 59.9396 50.5C60.2996 50.38 60.7956 50.204 61.4276 49.972C61.5156 49.94 61.6036 49.948 61.6916 49.996C61.7876 50.036 61.8516 50.104 61.8836 50.2C61.9236 50.288 61.9236 50.38 61.8836 50.476C61.8436 50.564 61.7716 50.628 61.6676 50.668C61.2996 50.796 60.9636 50.912 60.6596 51.016C60.3556 51.12 60.0836 51.208 59.8436 51.28C59.5236 51.376 59.2796 51.444 59.1116 51.484C58.9436 51.516 58.8156 51.532 58.7276 51.532ZM71.63 51.532C71.574 51.532 71.522 51.524 71.474 51.508C71.322 51.476 71.214 51.384 71.15 51.232C71.102 51.096 71.114 50.944 71.186 50.776C71.266 50.608 71.37 50.42 71.498 50.212C71.546 50.14 71.59 50.068 71.63 49.996C71.678 49.916 71.718 49.844 71.75 49.78C71.766 49.756 71.778 49.736 71.786 49.72C71.794 49.696 71.802 49.676 71.81 49.66C71.57 49.62 71.29 49.612 70.97 49.636C70.658 49.652 70.306 49.712 69.914 49.816C69.57 49.904 69.198 50.02 68.798 50.164C68.406 50.3 67.99 50.464 67.55 50.656C67.462 50.688 67.374 50.688 67.286 50.656C67.198 50.624 67.134 50.564 67.094 50.476C67.046 50.388 67.042 50.296 67.082 50.2C67.122 50.096 67.186 50.028 67.274 49.996C67.722 49.796 68.15 49.624 68.558 49.48C68.974 49.328 69.366 49.208 69.734 49.12C70.718 48.872 71.522 48.832 72.146 49C72.33 49.048 72.458 49.16 72.53 49.336C72.602 49.512 72.586 49.708 72.482 49.924C72.378 50.14 72.254 50.364 72.11 50.596C72.102 50.612 72.09 50.632 72.074 50.656C72.058 50.68 72.042 50.708 72.026 50.74C72.21 50.7 72.482 50.62 72.842 50.5C73.202 50.38 73.698 50.204 74.33 49.972C74.418 49.94 74.506 49.948 74.594 49.996C74.69 50.036 74.754 50.104 74.786 50.2C74.826 50.288 74.826 50.38 74.786 50.476C74.746 50.564 74.674 50.628 74.57 50.668C74.202 50.796 73.866 50.912 73.562 51.016C73.258 51.12 72.986 51.208 72.746 51.28C72.426 51.376 72.182 51.444 72.014 51.484C71.846 51.516 71.718 51.532 71.63 51.532ZM75.4444 52.336C75.3884 52.336 75.3324 52.328 75.2764 52.312C75.2204 52.304 75.1644 52.296 75.1084 52.288C74.9644 52.248 74.8644 52.164 74.8084 52.036C74.7364 51.876 74.7364 51.684 74.8084 51.46C74.8884 51.228 75.0164 50.932 75.1924 50.572C75.2244 50.508 75.2564 50.436 75.2884 50.356C75.3284 50.276 75.3644 50.2 75.3964 50.128C75.2924 50.168 75.1804 50.236 75.0604 50.332C74.9484 50.42 74.8324 50.512 74.7124 50.608C74.6324 50.664 74.5444 50.688 74.4484 50.68C74.3444 50.664 74.2604 50.62 74.1964 50.548C74.1404 50.468 74.1204 50.38 74.1364 50.284C74.1444 50.188 74.1844 50.104 74.2564 50.032C74.3684 49.952 74.4844 49.864 74.6044 49.768C74.7324 49.672 74.8604 49.592 74.9884 49.528C75.3164 49.36 75.6164 49.316 75.8884 49.396C76.0164 49.42 76.1124 49.5 76.1764 49.636C76.2404 49.764 76.2364 49.924 76.1644 50.116C76.1004 50.308 75.9884 50.568 75.8284 50.896C75.7884 50.992 75.7444 51.088 75.6964 51.184C75.6564 51.28 75.6164 51.372 75.5764 51.46C75.5684 51.492 75.5564 51.52 75.5404 51.544C75.5324 51.568 75.5244 51.592 75.5164 51.616C75.6844 51.592 75.9284 51.508 76.2484 51.364C76.5764 51.212 77.0164 50.916 77.5684 50.476C77.8644 50.244 78.1324 50.02 78.3724 49.804C78.6124 49.58 78.8044 49.396 78.9484 49.252C79.0924 49.108 79.1644 49.036 79.1644 49.036C79.2604 48.924 79.3764 48.888 79.5124 48.928C79.5764 48.936 79.6284 48.964 79.6684 49.012C79.7084 49.052 79.7404 49.092 79.7644 49.132C79.8204 49.244 79.8244 49.376 79.7764 49.528C79.7364 49.672 79.6484 49.908 79.5124 50.236C79.4644 50.34 79.4164 50.444 79.3684 50.548C79.3284 50.652 79.2884 50.748 79.2484 50.836C79.2404 50.868 79.2324 50.896 79.2244 50.92C79.2244 50.936 79.2204 50.952 79.2124 50.968C79.3644 50.944 79.5244 50.88 79.6924 50.776C79.8684 50.664 80.0364 50.54 80.1964 50.404C80.3644 50.268 80.5044 50.152 80.6164 50.056C80.6964 49.984 80.7844 49.952 80.8804 49.96C80.9764 49.968 81.0604 50.008 81.1324 50.08C81.1964 50.16 81.2244 50.248 81.2164 50.344C81.2164 50.44 81.1764 50.524 81.0964 50.596C80.8484 50.812 80.5924 51.016 80.3284 51.208C80.0724 51.4 79.8124 51.544 79.5484 51.64C79.2924 51.728 79.0324 51.74 78.7684 51.676C78.6404 51.62 78.5484 51.54 78.4924 51.436C78.4444 51.324 78.4284 51.2 78.4444 51.064C78.4684 50.928 78.5164 50.76 78.5884 50.56C78.5004 50.64 78.4084 50.716 78.3124 50.788C78.2244 50.86 78.1284 50.94 78.0244 51.028C76.9204 51.9 76.0604 52.336 75.4444 52.336ZM82.3831 52.36C82.3431 52.36 82.3031 52.356 82.2631 52.348C82.2231 52.348 82.1791 52.344 82.1311 52.336C82.0351 52.304 81.9551 52.236 81.8911 52.132C81.8591 52.068 81.8431 51.98 81.8431 51.868C81.8431 51.756 81.8791 51.572 81.9511 51.316C82.0231 51.06 82.1391 50.68 82.2991 50.176C82.1231 50.24 81.9191 50.316 81.6871 50.404C81.4631 50.492 81.2311 50.58 80.9911 50.668C80.9031 50.7 80.8151 50.696 80.7271 50.656C80.6311 50.608 80.5631 50.536 80.5231 50.44C80.4911 50.352 80.4991 50.264 80.5471 50.176C80.5871 50.08 80.6551 50.012 80.7511 49.972C81.0951 49.844 81.4151 49.724 81.7111 49.612C82.0151 49.5 82.2631 49.408 82.4551 49.336C82.6471 49.264 82.7431 49.228 82.7431 49.228C82.8231 49.196 82.8991 49.192 82.9711 49.216C83.0751 49.24 83.1511 49.3 83.1991 49.396C83.2391 49.468 83.2511 49.532 83.2351 49.588C83.2271 49.644 83.2151 49.704 83.1991 49.768C83.1831 49.8 83.1711 49.836 83.1631 49.876C83.1551 49.908 83.1431 49.948 83.1271 49.996C83.0711 50.132 83.0111 50.3 82.9471 50.5C82.8911 50.692 82.8311 50.888 82.7671 51.088C82.7271 51.2 82.6951 51.296 82.6711 51.376C82.6471 51.456 82.6271 51.528 82.6111 51.592C82.7631 51.56 82.9831 51.468 83.2711 51.316C83.5191 51.18 83.7831 51.024 84.0631 50.848C84.3511 50.664 84.6431 50.472 84.9391 50.272C85.0031 50.232 85.0671 50.192 85.1311 50.152C85.2031 50.112 85.2671 50.068 85.3231 50.02C85.4111 49.964 85.5031 49.948 85.5991 49.972C85.7031 49.988 85.7831 50.04 85.8391 50.128C85.8951 50.208 85.9111 50.296 85.8871 50.392C85.8711 50.488 85.8191 50.564 85.7311 50.62C85.6671 50.668 85.5991 50.716 85.5271 50.764C85.4631 50.804 85.3951 50.848 85.3231 50.896C85.0191 51.096 84.7231 51.288 84.4351 51.472C84.1471 51.656 83.8751 51.816 83.6191 51.952C83.0991 52.224 82.6871 52.36 82.3831 52.36ZM89.7589 51.532C89.7029 51.532 89.6509 51.524 89.6029 51.508C89.4509 51.476 89.3429 51.384 89.2789 51.232C89.2309 51.096 89.2429 50.944 89.3149 50.776C89.3949 50.608 89.4989 50.42 89.6269 50.212C89.6749 50.14 89.7189 50.068 89.7589 49.996C89.8069 49.916 89.8469 49.844 89.8789 49.78C89.8949 49.756 89.9069 49.736 89.9149 49.72C89.9229 49.696 89.9309 49.676 89.9389 49.66C89.6989 49.62 89.4189 49.612 89.0989 49.636C88.7869 49.652 88.4349 49.712 88.0429 49.816C87.6989 49.904 87.3269 50.02 86.9269 50.164C86.5349 50.3 86.1189 50.464 85.6789 50.656C85.5909 50.688 85.5029 50.688 85.4149 50.656C85.3269 50.624 85.2629 50.564 85.2229 50.476C85.1749 50.388 85.1709 50.296 85.2109 50.2C85.2509 50.096 85.3149 50.028 85.4029 49.996C85.8509 49.796 86.2789 49.624 86.6869 49.48C87.1029 49.328 87.4949 49.208 87.8629 49.12C88.8469 48.872 89.6509 48.832 90.2749 49C90.4589 49.048 90.5869 49.16 90.6589 49.336C90.7309 49.512 90.7149 49.708 90.6109 49.924C90.5069 50.14 90.3829 50.364 90.2389 50.596C90.2309 50.612 90.2189 50.632 90.2029 50.656C90.1869 50.68 90.1709 50.708 90.1549 50.74C90.3389 50.7 90.6109 50.62 90.9709 50.5C91.3309 50.38 91.8269 50.204 92.4589 49.972C92.5469 49.94 92.6349 49.948 92.7229 49.996C92.8189 50.036 92.8829 50.104 92.9149 50.2C92.9549 50.288 92.9549 50.38 92.9149 50.476C92.8749 50.564 92.8029 50.628 92.6989 50.668C92.3309 50.796 91.9949 50.912 91.6909 51.016C91.3869 51.12 91.1149 51.208 90.8749 51.28C90.5549 51.376 90.3109 51.444 90.1429 51.484C89.9749 51.516 89.8469 51.532 89.7589 51.532Z" fill="black"/>
<path d="M40.5987 73.532C40.5427 73.532 40.4907 73.524 40.4427 73.508C40.2907 73.476 40.1827 73.384 40.1187 73.232C40.0707 73.096 40.0827 72.944 40.1547 72.776C40.2347 72.608 40.3387 72.42 40.4667 72.212C40.5147 72.14 40.5587 72.068 40.5987 71.996C40.6467 71.916 40.6867 71.844 40.7187 71.78C40.7347 71.756 40.7467 71.736 40.7547 71.72C40.7627 71.696 40.7707 71.676 40.7787 71.66C40.5387 71.62 40.2587 71.612 39.9387 71.636C39.6267 71.652 39.2747 71.712 38.8827 71.816C38.5387 71.904 38.1667 72.02 37.7667 72.164C37.3747 72.3 36.9587 72.464 36.5187 72.656C36.4307 72.688 36.3427 72.688 36.2547 72.656C36.1667 72.624 36.1027 72.564 36.0627 72.476C36.0147 72.388 36.0107 72.296 36.0507 72.2C36.0907 72.096 36.1547 72.028 36.2427 71.996C36.6907 71.796 37.1187 71.624 37.5267 71.48C37.9427 71.328 38.3347 71.208 38.7027 71.12C39.6867 70.872 40.4907 70.832 41.1147 71C41.2987 71.048 41.4267 71.16 41.4987 71.336C41.5707 71.512 41.5547 71.708 41.4507 71.924C41.3467 72.14 41.2227 72.364 41.0787 72.596C41.0707 72.612 41.0587 72.632 41.0427 72.656C41.0267 72.68 41.0107 72.708 40.9947 72.74C41.1787 72.7 41.4507 72.62 41.8107 72.5C42.1707 72.38 42.6667 72.204 43.2987 71.972C43.3867 71.94 43.4747 71.948 43.5627 71.996C43.6587 72.036 43.7227 72.104 43.7547 72.2C43.7947 72.288 43.7947 72.38 43.7547 72.476C43.7147 72.564 43.6427 72.628 43.5387 72.668C43.1707 72.796 42.8347 72.912 42.5307 73.016C42.2267 73.12 41.9547 73.208 41.7147 73.28C41.3947 73.376 41.1507 73.444 40.9827 73.484C40.8147 73.516 40.6867 73.532 40.5987 73.532ZM44.4131 74.336C44.3571 74.336 44.3011 74.328 44.2451 74.312C44.1891 74.304 44.1331 74.296 44.0771 74.288C43.9331 74.248 43.8331 74.164 43.7771 74.036C43.7051 73.876 43.7051 73.684 43.7771 73.46C43.8571 73.228 43.9851 72.932 44.1611 72.572C44.1931 72.508 44.2251 72.436 44.2571 72.356C44.2971 72.276 44.3331 72.2 44.3651 72.128C44.2611 72.168 44.1491 72.236 44.0291 72.332C43.9171 72.42 43.8011 72.512 43.6811 72.608C43.6011 72.664 43.5131 72.688 43.4171 72.68C43.3131 72.664 43.2291 72.62 43.1651 72.548C43.1091 72.468 43.0891 72.38 43.1051 72.284C43.1131 72.188 43.1531 72.104 43.2251 72.032C43.3371 71.952 43.4531 71.864 43.5731 71.768C43.7011 71.672 43.8291 71.592 43.9571 71.528C44.2851 71.36 44.5851 71.316 44.8571 71.396C44.9851 71.42 45.0811 71.5 45.1451 71.636C45.2091 71.764 45.2051 71.924 45.1331 72.116C45.0691 72.308 44.9571 72.568 44.7971 72.896C44.7571 72.992 44.7131 73.088 44.6651 73.184C44.6251 73.28 44.5851 73.372 44.5451 73.46C44.5371 73.492 44.5251 73.52 44.5091 73.544C44.5011 73.568 44.4931 73.592 44.4851 73.616C44.6531 73.592 44.8971 73.508 45.2171 73.364C45.5451 73.212 45.9851 72.916 46.5371 72.476C46.8331 72.244 47.1011 72.02 47.3411 71.804C47.5811 71.58 47.7731 71.396 47.9171 71.252C48.0611 71.108 48.1331 71.036 48.1331 71.036C48.2291 70.924 48.3451 70.888 48.4811 70.928C48.5451 70.936 48.5971 70.964 48.6371 71.012C48.6771 71.052 48.7091 71.092 48.7331 71.132C48.7891 71.244 48.7931 71.376 48.7451 71.528C48.7051 71.672 48.6171 71.908 48.4811 72.236C48.4331 72.34 48.3851 72.444 48.3371 72.548C48.2971 72.652 48.2571 72.748 48.2171 72.836C48.2091 72.868 48.2011 72.896 48.1931 72.92C48.1931 72.936 48.1891 72.952 48.1811 72.968C48.3331 72.944 48.4931 72.88 48.6611 72.776C48.8371 72.664 49.0051 72.54 49.1651 72.404C49.3331 72.268 49.4731 72.152 49.5851 72.056C49.6651 71.984 49.7531 71.952 49.8491 71.96C49.9451 71.968 50.0291 72.008 50.1011 72.08C50.1651 72.16 50.1931 72.248 50.1851 72.344C50.1851 72.44 50.1451 72.524 50.0651 72.596C49.8171 72.812 49.5611 73.016 49.2971 73.208C49.0411 73.4 48.7811 73.544 48.5171 73.64C48.2611 73.728 48.0011 73.74 47.7371 73.676C47.6091 73.62 47.5171 73.54 47.4611 73.436C47.4131 73.324 47.3971 73.2 47.4131 73.064C47.4371 72.928 47.4851 72.76 47.5571 72.56C47.4691 72.64 47.3771 72.716 47.2811 72.788C47.1931 72.86 47.0971 72.94 46.9931 73.028C45.8891 73.9 45.0291 74.336 44.4131 74.336ZM51.3518 74.36C51.3118 74.36 51.2718 74.356 51.2318 74.348C51.1918 74.348 51.1478 74.344 51.0998 74.336C51.0038 74.304 50.9238 74.236 50.8598 74.132C50.8278 74.068 50.8118 73.98 50.8118 73.868C50.8118 73.756 50.8478 73.572 50.9198 73.316C50.9918 73.06 51.1078 72.68 51.2678 72.176C51.0918 72.24 50.8878 72.316 50.6558 72.404C50.4318 72.492 50.1998 72.58 49.9598 72.668C49.8718 72.7 49.7838 72.696 49.6958 72.656C49.5998 72.608 49.5318 72.536 49.4918 72.44C49.4598 72.352 49.4678 72.264 49.5158 72.176C49.5558 72.08 49.6238 72.012 49.7198 71.972C50.0638 71.844 50.3838 71.724 50.6798 71.612C50.9838 71.5 51.2318 71.408 51.4238 71.336C51.6158 71.264 51.7118 71.228 51.7118 71.228C51.7918 71.196 51.8678 71.192 51.9398 71.216C52.0438 71.24 52.1198 71.3 52.1678 71.396C52.2078 71.468 52.2198 71.532 52.2038 71.588C52.1958 71.644 52.1838 71.704 52.1678 71.768C52.1518 71.8 52.1398 71.836 52.1318 71.876C52.1238 71.908 52.1118 71.948 52.0958 71.996C52.0398 72.132 51.9798 72.3 51.9158 72.5C51.8598 72.692 51.7998 72.888 51.7358 73.088C51.6958 73.2 51.6638 73.296 51.6398 73.376C51.6158 73.456 51.5958 73.528 51.5798 73.592C51.7318 73.56 51.9518 73.468 52.2398 73.316C52.4878 73.18 52.7518 73.024 53.0318 72.848C53.3198 72.664 53.6118 72.472 53.9078 72.272C53.9718 72.232 54.0358 72.192 54.0998 72.152C54.1718 72.112 54.2358 72.068 54.2918 72.02C54.3798 71.964 54.4718 71.948 54.5678 71.972C54.6718 71.988 54.7518 72.04 54.8078 72.128C54.8638 72.208 54.8798 72.296 54.8558 72.392C54.8398 72.488 54.7878 72.564 54.6998 72.62C54.6358 72.668 54.5678 72.716 54.4958 72.764C54.4318 72.804 54.3638 72.848 54.2918 72.896C53.9878 73.096 53.6918 73.288 53.4038 73.472C53.1158 73.656 52.8438 73.816 52.5878 73.952C52.0678 74.224 51.6558 74.36 51.3518 74.36ZM58.7276 73.532C58.6716 73.532 58.6196 73.524 58.5716 73.508C58.4196 73.476 58.3116 73.384 58.2476 73.232C58.1996 73.096 58.2116 72.944 58.2836 72.776C58.3636 72.608 58.4676 72.42 58.5956 72.212C58.6436 72.14 58.6876 72.068 58.7276 71.996C58.7756 71.916 58.8156 71.844 58.8476 71.78C58.8636 71.756 58.8756 71.736 58.8836 71.72C58.8916 71.696 58.8996 71.676 58.9076 71.66C58.6676 71.62 58.3876 71.612 58.0676 71.636C57.7556 71.652 57.4036 71.712 57.0116 71.816C56.6676 71.904 56.2956 72.02 55.8956 72.164C55.5036 72.3 55.0876 72.464 54.6476 72.656C54.5596 72.688 54.4716 72.688 54.3836 72.656C54.2956 72.624 54.2316 72.564 54.1916 72.476C54.1436 72.388 54.1396 72.296 54.1796 72.2C54.2196 72.096 54.2836 72.028 54.3716 71.996C54.8196 71.796 55.2476 71.624 55.6556 71.48C56.0716 71.328 56.4636 71.208 56.8316 71.12C57.8156 70.872 58.6196 70.832 59.2436 71C59.4276 71.048 59.5556 71.16 59.6276 71.336C59.6996 71.512 59.6836 71.708 59.5796 71.924C59.4756 72.14 59.3516 72.364 59.2076 72.596C59.1996 72.612 59.1876 72.632 59.1716 72.656C59.1556 72.68 59.1396 72.708 59.1236 72.74C59.3076 72.7 59.5796 72.62 59.9396 72.5C60.2996 72.38 60.7956 72.204 61.4276 71.972C61.5156 71.94 61.6036 71.948 61.6916 71.996C61.7876 72.036 61.8516 72.104 61.8836 72.2C61.9236 72.288 61.9236 72.38 61.8836 72.476C61.8436 72.564 61.7716 72.628 61.6676 72.668C61.2996 72.796 60.9636 72.912 60.6596 73.016C60.3556 73.12 60.0836 73.208 59.8436 73.28C59.5236 73.376 59.2796 73.444 59.1116 73.484C58.9436 73.516 58.8156 73.532 58.7276 73.532ZM71.63 73.532C71.574 73.532 71.522 73.524 71.474 73.508C71.322 73.476 71.214 73.384 71.15 73.232C71.102 73.096 71.114 72.944 71.186 72.776C71.266 72.608 71.37 72.42 71.498 72.212C71.546 72.14 71.59 72.068 71.63 71.996C71.678 71.916 71.718 71.844 71.75 71.78C71.766 71.756 71.778 71.736 71.786 71.72C71.794 71.696 71.802 71.676 71.81 71.66C71.57 71.62 71.29 71.612 70.97 71.636C70.658 71.652 70.306 71.712 69.914 71.816C69.57 71.904 69.198 72.02 68.798 72.164C68.406 72.3 67.99 72.464 67.55 72.656C67.462 72.688 67.374 72.688 67.286 72.656C67.198 72.624 67.134 72.564 67.094 72.476C67.046 72.388 67.042 72.296 67.082 72.2C67.122 72.096 67.186 72.028 67.274 71.996C67.722 71.796 68.15 71.624 68.558 71.48C68.974 71.328 69.366 71.208 69.734 71.12C70.718 70.872 71.522 70.832 72.146 71C72.33 71.048 72.458 71.16 72.53 71.336C72.602 71.512 72.586 71.708 72.482 71.924C72.378 72.14 72.254 72.364 72.11 72.596C72.102 72.612 72.09 72.632 72.074 72.656C72.058 72.68 72.042 72.708 72.026 72.74C72.21 72.7 72.482 72.62 72.842 72.5C73.202 72.38 73.698 72.204 74.33 71.972C74.418 71.94 74.506 71.948 74.594 71.996C74.69 72.036 74.754 72.104 74.786 72.2C74.826 72.288 74.826 72.38 74.786 72.476C74.746 72.564 74.674 72.628 74.57 72.668C74.202 72.796 73.866 72.912 73.562 73.016C73.258 73.12 72.986 73.208 72.746 73.28C72.426 73.376 72.182 73.444 72.014 73.484C71.846 73.516 71.718 73.532 71.63 73.532ZM75.4444 74.336C75.3884 74.336 75.3324 74.328 75.2764 74.312C75.2204 74.304 75.1644 74.296 75.1084 74.288C74.9644 74.248 74.8644 74.164 74.8084 74.036C74.7364 73.876 74.7364 73.684 74.8084 73.46C74.8884 73.228 75.0164 72.932 75.1924 72.572C75.2244 72.508 75.2564 72.436 75.2884 72.356C75.3284 72.276 75.3644 72.2 75.3964 72.128C75.2924 72.168 75.1804 72.236 75.0604 72.332C74.9484 72.42 74.8324 72.512 74.7124 72.608C74.6324 72.664 74.5444 72.688 74.4484 72.68C74.3444 72.664 74.2604 72.62 74.1964 72.548C74.1404 72.468 74.1204 72.38 74.1364 72.284C74.1444 72.188 74.1844 72.104 74.2564 72.032C74.3684 71.952 74.4844 71.864 74.6044 71.768C74.7324 71.672 74.8604 71.592 74.9884 71.528C75.3164 71.36 75.6164 71.316 75.8884 71.396C76.0164 71.42 76.1124 71.5 76.1764 71.636C76.2404 71.764 76.2364 71.924 76.1644 72.116C76.1004 72.308 75.9884 72.568 75.8284 72.896C75.7884 72.992 75.7444 73.088 75.6964 73.184C75.6564 73.28 75.6164 73.372 75.5764 73.46C75.5684 73.492 75.5564 73.52 75.5404 73.544C75.5324 73.568 75.5244 73.592 75.5164 73.616C75.6844 73.592 75.9284 73.508 76.2484 73.364C76.5764 73.212 77.0164 72.916 77.5684 72.476C77.8644 72.244 78.1324 72.02 78.3724 71.804C78.6124 71.58 78.8044 71.396 78.9484 71.252C79.0924 71.108 79.1644 71.036 79.1644 71.036C79.2604 70.924 79.3764 70.888 79.5124 70.928C79.5764 70.936 79.6284 70.964 79.6684 71.012C79.7084 71.052 79.7404 71.092 79.7644 71.132C79.8204 71.244 79.8244 71.376 79.7764 71.528C79.7364 71.672 79.6484 71.908 79.5124 72.236C79.4644 72.34 79.4164 72.444 79.3684 72.548C79.3284 72.652 79.2884 72.748 79.2484 72.836C79.2404 72.868 79.2324 72.896 79.2244 72.92C79.2244 72.936 79.2204 72.952 79.2124 72.968C79.3644 72.944 79.5244 72.88 79.6924 72.776C79.8684 72.664 80.0364 72.54 80.1964 72.404C80.3644 72.268 80.5044 72.152 80.6164 72.056C80.6964 71.984 80.7844 71.952 80.8804 71.96C80.9764 71.968 81.0604 72.008 81.1324 72.08C81.1964 72.16 81.2244 72.248 81.2164 72.344C81.2164 72.44 81.1764 72.524 81.0964 72.596C80.8484 72.812 80.5924 73.016 80.3284 73.208C80.0724 73.4 79.8124 73.544 79.5484 73.64C79.2924 73.728 79.0324 73.74 78.7684 73.676C78.6404 73.62 78.5484 73.54 78.4924 73.436C78.4444 73.324 78.4284 73.2 78.4444 73.064C78.4684 72.928 78.5164 72.76 78.5884 72.56C78.5004 72.64 78.4084 72.716 78.3124 72.788C78.2244 72.86 78.1284 72.94 78.0244 73.028C76.9204 73.9 76.0604 74.336 75.4444 74.336ZM82.3831 74.36C82.3431 74.36 82.3031 74.356 82.2631 74.348C82.2231 74.348 82.1791 74.344 82.1311 74.336C82.0351 74.304 81.9551 74.236 81.8911 74.132C81.8591 74.068 81.8431 73.98 81.8431 73.868C81.8431 73.756 81.8791 73.572 81.9511 73.316C82.0231 73.06 82.1391 72.68 82.2991 72.176C82.1231 72.24 81.9191 72.316 81.6871 72.404C81.4631 72.492 81.2311 72.58 80.9911 72.668C80.9031 72.7 80.8151 72.696 80.7271 72.656C80.6311 72.608 80.5631 72.536 80.5231 72.44C80.4911 72.352 80.4991 72.264 80.5471 72.176C80.5871 72.08 80.6551 72.012 80.7511 71.972C81.0951 71.844 81.4151 71.724 81.7111 71.612C82.0151 71.5 82.2631 71.408 82.4551 71.336C82.6471 71.264 82.7431 71.228 82.7431 71.228C82.8231 71.196 82.8991 71.192 82.9711 71.216C83.0751 71.24 83.1511 71.3 83.1991 71.396C83.2391 71.468 83.2511 71.532 83.2351 71.588C83.2271 71.644 83.2151 71.704 83.1991 71.768C83.1831 71.8 83.1711 71.836 83.1631 71.876C83.1551 71.908 83.1431 71.948 83.1271 71.996C83.0711 72.132 83.0111 72.3 82.9471 72.5C82.8911 72.692 82.8311 72.888 82.7671 73.088C82.7271 73.2 82.6951 73.296 82.6711 73.376C82.6471 73.456 82.6271 73.528 82.6111 73.592C82.7631 73.56 82.9831 73.468 83.2711 73.316C83.5191 73.18 83.7831 73.024 84.0631 72.848C84.3511 72.664 84.6431 72.472 84.9391 72.272C85.0031 72.232 85.0671 72.192 85.1311 72.152C85.2031 72.112 85.2671 72.068 85.3231 72.02C85.4111 71.964 85.5031 71.948 85.5991 71.972C85.7031 71.988 85.7831 72.04 85.8391 72.128C85.8951 72.208 85.9111 72.296 85.8871 72.392C85.8711 72.488 85.8191 72.564 85.7311 72.62C85.6671 72.668 85.5991 72.716 85.5271 72.764C85.4631 72.804 85.3951 72.848 85.3231 72.896C85.0191 73.096 84.7231 73.288 84.4351 73.472C84.1471 73.656 83.8751 73.816 83.6191 73.952C83.0991 74.224 82.6871 74.36 82.3831 74.36ZM89.7589 73.532C89.7029 73.532 89.6509 73.524 89.6029 73.508C89.4509 73.476 89.3429 73.384 89.2789 73.232C89.2309 73.096 89.2429 72.944 89.3149 72.776C89.3949 72.608 89.4989 72.42 89.6269 72.212C89.6749 72.14 89.7189 72.068 89.7589 71.996C89.8069 71.916 89.8469 71.844 89.8789 71.78C89.8949 71.756 89.9069 71.736 89.9149 71.72C89.9229 71.696 89.9309 71.676 89.9389 71.66C89.6989 71.62 89.4189 71.612 89.0989 71.636C88.7869 71.652 88.4349 71.712 88.0429 71.816C87.6989 71.904 87.3269 72.02 86.9269 72.164C86.5349 72.3 86.1189 72.464 85.6789 72.656C85.5909 72.688 85.5029 72.688 85.4149 72.656C85.3269 72.624 85.2629 72.564 85.2229 72.476C85.1749 72.388 85.1709 72.296 85.2109 72.2C85.2509 72.096 85.3149 72.028 85.4029 71.996C85.8509 71.796 86.2789 71.624 86.6869 71.48C87.1029 71.328 87.4949 71.208 87.8629 71.12C88.8469 70.872 89.6509 70.832 90.2749 71C90.4589 71.048 90.5869 71.16 90.6589 71.336C90.7309 71.512 90.7149 71.708 90.6109 71.924C90.5069 72.14 90.3829 72.364 90.2389 72.596C90.2309 72.612 90.2189 72.632 90.2029 72.656C90.1869 72.68 90.1709 72.708 90.1549 72.74C90.3389 72.7 90.6109 72.62 90.9709 72.5C91.3309 72.38 91.8269 72.204 92.4589 71.972C92.5469 71.94 92.6349 71.948 92.7229 71.996C92.8189 72.036 92.8829 72.104 92.9149 72.2C92.9549 72.288 92.9549 72.38 92.9149 72.476C92.8749 72.564 92.8029 72.628 92.6989 72.668C92.3309 72.796 91.9949 72.912 91.6909 73.016C91.3869 73.12 91.1149 73.208 90.8749 73.28C90.5549 73.376 90.3109 73.444 90.1429 73.484C89.9749 73.516 89.8469 73.532 89.7589 73.532Z" fill="black"/>
<rect x="36.5" y="106" width="6" height="6" stroke="black"/>
<path d="M52.212 112.532C52.156 112.532 52.104 112.524 52.056 112.508C51.904 112.476 51.796 112.384 51.732 112.232C51.684 112.096 51.696 111.944 51.768 111.776C51.848 111.608 51.952 111.42 52.08 111.212C52.128 111.14 52.172 111.068 52.212 110.996C52.26 110.916 52.3 110.844 52.332 110.78C52.348 110.756 52.36 110.736 52.368 110.72C52.376 110.696 52.384 110.676 52.392 110.66C52.152 110.62 51.872 110.612 51.552 110.636C51.24 110.652 50.888 110.712 50.496 110.816C50.152 110.904 49.78 111.02 49.38 111.164C48.988 111.3 48.572 111.464 48.132 111.656C48.044 111.688 47.956 111.688 47.868 111.656C47.78 111.624 47.716 111.564 47.676 111.476C47.628 111.388 47.624 111.296 47.664 111.2C47.704 111.096 47.768 111.028 47.856 110.996C48.304 110.796 48.732 110.624 49.14 110.48C49.556 110.328 49.948 110.208 50.316 110.12C51.3 109.872 52.104 109.832 52.728 110C52.912 110.048 53.04 110.16 53.112 110.336C53.184 110.512 53.168 110.708 53.064 110.924C52.96 111.14 52.836 111.364 52.692 111.596C52.684 111.612 52.672 111.632 52.656 111.656C52.64 111.68 52.624 111.708 52.608 111.74C52.792 111.7 53.064 111.62 53.424 111.5C53.784 111.38 54.28 111.204 54.912 110.972C55 110.94 55.088 110.948 55.176 110.996C55.272 111.036 55.336 111.104 55.368 111.2C55.408 111.288 55.408 111.38 55.368 111.476C55.328 111.564 55.256 111.628 55.152 111.668C54.784 111.796 54.448 111.912 54.144 112.016C53.84 112.12 53.568 112.208 53.328 112.28C53.008 112.376 52.764 112.444 52.596 112.484C52.428 112.516 52.3 112.532 52.212 112.532ZM56.0264 113.336C55.9704 113.336 55.9144 113.328 55.8584 113.312C55.8024 113.304 55.7464 113.296 55.6904 113.288C55.5464 113.248 55.4464 113.164 55.3904 113.036C55.3184 112.876 55.3184 112.684 55.3904 112.46C55.4704 112.228 55.5984 111.932 55.7744 111.572C55.8064 111.508 55.8384 111.436 55.8704 111.356C55.9104 111.276 55.9464 111.2 55.9784 111.128C55.8744 111.168 55.7624 111.236 55.6424 111.332C55.5304 111.42 55.4144 111.512 55.2944 111.608C55.2144 111.664 55.1264 111.688 55.0304 111.68C54.9264 111.664 54.8424 111.62 54.7784 111.548C54.7224 111.468 54.7024 111.38 54.7184 111.284C54.7264 111.188 54.7664 111.104 54.8384 111.032C54.9504 110.952 55.0664 110.864 55.1864 110.768C55.3144 110.672 55.4424 110.592 55.5704 110.528C55.8984 110.36 56.1984 110.316 56.4704 110.396C56.5984 110.42 56.6944 110.5 56.7584 110.636C56.8224 110.764 56.8184 110.924 56.7464 111.116C56.6824 111.308 56.5704 111.568 56.4104 111.896C56.3704 111.992 56.3264 112.088 56.2784 112.184C56.2384 112.28 56.1984 112.372 56.1584 112.46C56.1504 112.492 56.1384 112.52 56.1224 112.544C56.1144 112.568 56.1064 112.592 56.0984 112.616C56.2664 112.592 56.5104 112.508 56.8304 112.364C57.1584 112.212 57.5984 111.916 58.1504 111.476C58.4464 111.244 58.7144 111.02 58.9544 110.804C59.1944 110.58 59.3864 110.396 59.5304 110.252C59.6744 110.108 59.7464 110.036 59.7464 110.036C59.8424 109.924 59.9584 109.888 60.0944 109.928C60.1584 109.936 60.2104 109.964 60.2504 110.012C60.2904 110.052 60.3224 110.092 60.3464 110.132C60.4024 110.244 60.4064 110.376 60.3584 110.528C60.3184 110.672 60.2304 110.908 60.0944 111.236C60.0464 111.34 59.9984 111.444 59.9504 111.548C59.9104 111.652 59.8704 111.748 59.8304 111.836C59.8224 111.868 59.8144 111.896 59.8064 111.92C59.8064 111.936 59.8024 111.952 59.7944 111.968C59.9464 111.944 60.1064 111.88 60.2744 111.776C60.4504 111.664 60.6184 111.54 60.7784 111.404C60.9464 111.268 61.0864 111.152 61.1984 111.056C61.2784 110.984 61.3664 110.952 61.4624 110.96C61.5584 110.968 61.6424 111.008 61.7144 111.08C61.7784 111.16 61.8064 111.248 61.7984 111.344C61.7984 111.44 61.7584 111.524 61.6784 111.596C61.4304 111.812 61.1744 112.016 60.9104 112.208C60.6544 112.4 60.3944 112.544 60.1304 112.64C59.8744 112.728 59.6144 112.74 59.3504 112.676C59.2224 112.62 59.1304 112.54 59.0744 112.436C59.0264 112.324 59.0104 112.2 59.0264 112.064C59.0504 111.928 59.0984 111.76 59.1704 111.56C59.0824 111.64 58.9904 111.716 58.8944 111.788C58.8064 111.86 58.7104 111.94 58.6064 112.028C57.5024 112.9 56.6424 113.336 56.0264 113.336ZM65.6651 112.532C65.6091 112.532 65.5571 112.524 65.5091 112.508C65.3571 112.476 65.2491 112.384 65.1851 112.232C65.1371 112.096 65.1491 111.944 65.2211 111.776C65.3011 111.608 65.4051 111.42 65.5331 111.212C65.5811 111.14 65.6251 111.068 65.6651 110.996C65.7131 110.916 65.7531 110.844 65.7851 110.78C65.8011 110.756 65.8131 110.736 65.8211 110.72C65.8291 110.696 65.8371 110.676 65.8451 110.66C65.6051 110.62 65.3251 110.612 65.0051 110.636C64.6931 110.652 64.3411 110.712 63.9491 110.816C63.6051 110.904 63.2331 111.02 62.8331 111.164C62.4411 111.3 62.0251 111.464 61.5851 111.656C61.4971 111.688 61.4091 111.688 61.3211 111.656C61.2331 111.624 61.1691 111.564 61.1291 111.476C61.0811 111.388 61.0771 111.296 61.1171 111.2C61.1571 111.096 61.2211 111.028 61.3091 110.996C61.7571 110.796 62.1851 110.624 62.5931 110.48C63.0091 110.328 63.4011 110.208 63.7691 110.12C64.7531 109.872 65.5571 109.832 66.1811 110C66.3651 110.048 66.4931 110.16 66.5651 110.336C66.6371 110.512 66.6211 110.708 66.5171 110.924C66.4131 111.14 66.2891 111.364 66.1451 111.596C66.1371 111.612 66.1251 111.632 66.1091 111.656C66.0931 111.68 66.0771 111.708 66.0611 111.74C66.2451 111.7 66.5171 111.62 66.8771 111.5C67.2371 111.38 67.7331 111.204 68.3651 110.972C68.4531 110.94 68.5411 110.948 68.6291 110.996C68.7251 111.036 68.7891 111.104 68.8211 111.2C68.8611 111.288 68.8611 111.38 68.8211 111.476C68.7811 111.564 68.7091 111.628 68.6051 111.668C68.2371 111.796 67.9011 111.912 67.5971 112.016C67.2931 112.12 67.0211 112.208 66.7811 112.28C66.4611 112.376 66.2171 112.444 66.0491 112.484C65.8811 112.516 65.7531 112.532 65.6651 112.532ZM78.5675 112.532C78.5115 112.532 78.4595 112.524 78.4115 112.508C78.2595 112.476 78.1515 112.384 78.0875 112.232C78.0395 112.096 78.0515 111.944 78.1235 111.776C78.2035 111.608 78.3075 111.42 78.4355 111.212C78.4835 111.14 78.5275 111.068 78.5675 110.996C78.6155 110.916 78.6555 110.844 78.6875 110.78C78.7035 110.756 78.7155 110.736 78.7235 110.72C78.7315 110.696 78.7395 110.676 78.7475 110.66C78.5075 110.62 78.2275 110.612 77.9075 110.636C77.5955 110.652 77.2435 110.712 76.8515 110.816C76.5075 110.904 76.1355 111.02 75.7355 111.164C75.3435 111.3 74.9275 111.464 74.4875 111.656C74.3995 111.688 74.3115 111.688 74.2235 111.656C74.1355 111.624 74.0715 111.564 74.0315 111.476C73.9835 111.388 73.9795 111.296 74.0195 111.2C74.0595 111.096 74.1235 111.028 74.2115 110.996C74.6595 110.796 75.0875 110.624 75.4955 110.48C75.9115 110.328 76.3035 110.208 76.6715 110.12C77.6555 109.872 78.4595 109.832 79.0835 110C79.2675 110.048 79.3955 110.16 79.4675 110.336C79.5395 110.512 79.5235 110.708 79.4195 110.924C79.3155 111.14 79.1915 111.364 79.0475 111.596C79.0395 111.612 79.0275 111.632 79.0115 111.656C78.9955 111.68 78.9795 111.708 78.9635 111.74C79.1475 111.7 79.4195 111.62 79.7795 111.5C80.1395 111.38 80.6355 111.204 81.2675 110.972C81.3555 110.94 81.4435 110.948 81.5315 110.996C81.6275 111.036 81.6915 111.104 81.7235 111.2C81.7635 111.288 81.7635 111.38 81.7235 111.476C81.6835 111.564 81.6115 111.628 81.5075 111.668C81.1395 111.796 80.8035 111.912 80.4995 112.016C80.1955 112.12 79.9235 112.208 79.6835 112.28C79.3635 112.376 79.1195 112.444 78.9515 112.484C78.7835 112.516 78.6555 112.532 78.5675 112.532ZM82.9339 113.36C82.8939 113.36 82.8539 113.356 82.8139 113.348C82.7739 113.348 82.7299 113.344 82.6819 113.336C82.5859 113.304 82.5059 113.236 82.4419 113.132C82.4099 113.068 82.3939 112.98 82.3939 112.868C82.3939 112.756 82.4299 112.572 82.5019 112.316C82.5739 112.06 82.6899 111.68 82.8499 111.176C82.6739 111.24 82.4699 111.316 82.2379 111.404C82.0139 111.492 81.7819 111.58 81.5419 111.668C81.4539 111.7 81.3659 111.696 81.2779 111.656C81.1819 111.608 81.1139 111.536 81.0739 111.44C81.0419 111.352 81.0499 111.264 81.0979 111.176C81.1379 111.08 81.2059 111.012 81.3019 110.972C81.6459 110.844 81.9659 110.724 82.2619 110.612C82.5659 110.5 82.8139 110.408 83.0059 110.336C83.1979 110.264 83.2939 110.228 83.2939 110.228C83.3739 110.196 83.4499 110.192 83.5219 110.216C83.6259 110.24 83.7019 110.3 83.7499 110.396C83.7899 110.468 83.8019 110.532 83.7859 110.588C83.7779 110.644 83.7659 110.704 83.7499 110.768C83.7339 110.8 83.7219 110.836 83.7139 110.876C83.7059 110.908 83.6939 110.948 83.6779 110.996C83.6219 111.132 83.5619 111.3 83.4979 111.5C83.4419 111.692 83.3819 111.888 83.3179 112.088C83.2779 112.2 83.2459 112.296 83.2219 112.376C83.1979 112.456 83.1779 112.528 83.1619 112.592C83.3139 112.56 83.5339 112.468 83.8219 112.316C84.0699 112.18 84.3339 112.024 84.6139 111.848C84.9019 111.664 85.1939 111.472 85.4899 111.272C85.5539 111.232 85.6179 111.192 85.6819 111.152C85.7539 111.112 85.8179 111.068 85.8739 111.02C85.9619 110.964 86.0539 110.948 86.1499 110.972C86.2539 110.988 86.3339 111.04 86.3899 111.128C86.4459 111.208 86.4619 111.296 86.4379 111.392C86.4219 111.488 86.3699 111.564 86.2819 111.62C86.2179 111.668 86.1499 111.716 86.0779 111.764C86.0139 111.804 85.9459 111.848 85.8739 111.896C85.5699 112.096 85.2739 112.288 84.9859 112.472C84.6979 112.656 84.4259 112.816 84.1699 112.952C83.6499 113.224 83.2379 113.36 82.9339 113.36Z" fill="black"/>
<line x1="39.5302" y1="92.7863" x2="42.6083" y2="84.329" stroke="black"/>
<line x1="37.383" y1="90.1786" x2="39.9542" y2="93.2428" stroke="black"/>
<rect x="36.5" y="89" width="6" height="6" stroke="black"/>
<path d="M52.212 95.532C52.156 95.532 52.104 95.524 52.056 95.508C51.904 95.476 51.796 95.384 51.732 95.232C51.684 95.096 51.696 94.944 51.768 94.776C51.848 94.608 51.952 94.42 52.08 94.212C52.128 94.14 52.172 94.068 52.212 93.996C52.26 93.916 52.3 93.844 52.332 93.78C52.348 93.756 52.36 93.736 52.368 93.72C52.376 93.696 52.384 93.676 52.392 93.66C52.152 93.62 51.872 93.612 51.552 93.636C51.24 93.652 50.888 93.712 50.496 93.816C50.152 93.904 49.78 94.02 49.38 94.164C48.988 94.3 48.572 94.464 48.132 94.656C48.044 94.688 47.956 94.688 47.868 94.656C47.78 94.624 47.716 94.564 47.676 94.476C47.628 94.388 47.624 94.296 47.664 94.2C47.704 94.096 47.768 94.028 47.856 93.996C48.304 93.796 48.732 93.624 49.14 93.48C49.556 93.328 49.948 93.208 50.316 93.12C51.3 92.872 52.104 92.832 52.728 93C52.912 93.048 53.04 93.16 53.112 93.336C53.184 93.512 53.168 93.708 53.064 93.924C52.96 94.14 52.836 94.364 52.692 94.596C52.684 94.612 52.672 94.632 52.656 94.656C52.64 94.68 52.624 94.708 52.608 94.74C52.792 94.7 53.064 94.62 53.424 94.5C53.784 94.38 54.28 94.204 54.912 93.972C55 93.94 55.088 93.948 55.176 93.996C55.272 94.036 55.336 94.104 55.368 94.2C55.408 94.288 55.408 94.38 55.368 94.476C55.328 94.564 55.256 94.628 55.152 94.668C54.784 94.796 54.448 94.912 54.144 95.016C53.84 95.12 53.568 95.208 53.328 95.28C53.008 95.376 52.764 95.444 52.596 95.484C52.428 95.516 52.3 95.532 52.212 95.532ZM56.0264 96.336C55.9704 96.336 55.9144 96.328 55.8584 96.312C55.8024 96.304 55.7464 96.296 55.6904 96.288C55.5464 96.248 55.4464 96.164 55.3904 96.036C55.3184 95.876 55.3184 95.684 55.3904 95.46C55.4704 95.228 55.5984 94.932 55.7744 94.572C55.8064 94.508 55.8384 94.436 55.8704 94.356C55.9104 94.276 55.9464 94.2 55.9784 94.128C55.8744 94.168 55.7624 94.236 55.6424 94.332C55.5304 94.42 55.4144 94.512 55.2944 94.608C55.2144 94.664 55.1264 94.688 55.0304 94.68C54.9264 94.664 54.8424 94.62 54.7784 94.548C54.7224 94.468 54.7024 94.38 54.7184 94.284C54.7264 94.188 54.7664 94.104 54.8384 94.032C54.9504 93.952 55.0664 93.864 55.1864 93.768C55.3144 93.672 55.4424 93.592 55.5704 93.528C55.8984 93.36 56.1984 93.316 56.4704 93.396C56.5984 93.42 56.6944 93.5 56.7584 93.636C56.8224 93.764 56.8184 93.924 56.7464 94.116C56.6824 94.308 56.5704 94.568 56.4104 94.896C56.3704 94.992 56.3264 95.088 56.2784 95.184C56.2384 95.28 56.1984 95.372 56.1584 95.46C56.1504 95.492 56.1384 95.52 56.1224 95.544C56.1144 95.568 56.1064 95.592 56.0984 95.616C56.2664 95.592 56.5104 95.508 56.8304 95.364C57.1584 95.212 57.5984 94.916 58.1504 94.476C58.4464 94.244 58.7144 94.02 58.9544 93.804C59.1944 93.58 59.3864 93.396 59.5304 93.252C59.6744 93.108 59.7464 93.036 59.7464 93.036C59.8424 92.924 59.9584 92.888 60.0944 92.928C60.1584 92.936 60.2104 92.964 60.2504 93.012C60.2904 93.052 60.3224 93.092 60.3464 93.132C60.4024 93.244 60.4064 93.376 60.3584 93.528C60.3184 93.672 60.2304 93.908 60.0944 94.236C60.0464 94.34 59.9984 94.444 59.9504 94.548C59.9104 94.652 59.8704 94.748 59.8304 94.836C59.8224 94.868 59.8144 94.896 59.8064 94.92C59.8064 94.936 59.8024 94.952 59.7944 94.968C59.9464 94.944 60.1064 94.88 60.2744 94.776C60.4504 94.664 60.6184 94.54 60.7784 94.404C60.9464 94.268 61.0864 94.152 61.1984 94.056C61.2784 93.984 61.3664 93.952 61.4624 93.96C61.5584 93.968 61.6424 94.008 61.7144 94.08C61.7784 94.16 61.8064 94.248 61.7984 94.344C61.7984 94.44 61.7584 94.524 61.6784 94.596C61.4304 94.812 61.1744 95.016 60.9104 95.208C60.6544 95.4 60.3944 95.544 60.1304 95.64C59.8744 95.728 59.6144 95.74 59.3504 95.676C59.2224 95.62 59.1304 95.54 59.0744 95.436C59.0264 95.324 59.0104 95.2 59.0264 95.064C59.0504 94.928 59.0984 94.76 59.1704 94.56C59.0824 94.64 58.9904 94.716 58.8944 94.788C58.8064 94.86 58.7104 94.94 58.6064 95.028C57.5024 95.9 56.6424 96.336 56.0264 96.336ZM62.9651 96.36C62.9251 96.36 62.8851 96.356 62.8451 96.348C62.8051 96.348 62.7611 96.344 62.7131 96.336C62.6171 96.304 62.5371 96.236 62.4731 96.132C62.4411 96.068 62.4251 95.98 62.4251 95.868C62.4251 95.756 62.4611 95.572 62.5331 95.316C62.6051 95.06 62.7211 94.68 62.8811 94.176C62.7051 94.24 62.5011 94.316 62.2691 94.404C62.0451 94.492 61.8131 94.58 61.5731 94.668C61.4851 94.7 61.3971 94.696 61.3091 94.656C61.2131 94.608 61.1451 94.536 61.1051 94.44C61.0731 94.352 61.0811 94.264 61.1291 94.176C61.1691 94.08 61.2371 94.012 61.3331 93.972C61.6771 93.844 61.9971 93.724 62.2931 93.612C62.5971 93.5 62.8451 93.408 63.0371 93.336C63.2291 93.264 63.3251 93.228 63.3251 93.228C63.4051 93.196 63.4811 93.192 63.5531 93.216C63.6571 93.24 63.7331 93.3 63.7811 93.396C63.8211 93.468 63.8331 93.532 63.8171 93.588C63.8091 93.644 63.7971 93.704 63.7811 93.768C63.7651 93.8 63.7531 93.836 63.7451 93.876C63.7371 93.908 63.7251 93.948 63.7091 93.996C63.6531 94.132 63.5931 94.3 63.5291 94.5C63.4731 94.692 63.4131 94.888 63.3491 95.088C63.3091 95.2 63.2771 95.296 63.2531 95.376C63.2291 95.456 63.2091 95.528 63.1931 95.592C63.3451 95.56 63.5651 95.468 63.8531 95.316C64.1011 95.18 64.3651 95.024 64.6451 94.848C64.9331 94.664 65.2251 94.472 65.5211 94.272C65.5851 94.232 65.6491 94.192 65.7131 94.152C65.7851 94.112 65.8491 94.068 65.9051 94.02C65.9931 93.964 66.0851 93.948 66.1811 93.972C66.2851 93.988 66.3651 94.04 66.4211 94.128C66.4771 94.208 66.4931 94.296 66.4691 94.392C66.4531 94.488 66.4011 94.564 66.3131 94.62C66.2491 94.668 66.1811 94.716 66.1091 94.764C66.0451 94.804 65.9771 94.848 65.9051 94.896C65.6011 95.096 65.3051 95.288 65.0171 95.472C64.7291 95.656 64.4571 95.816 64.2011 95.952C63.6811 96.224 63.2691 96.36 62.9651 96.36ZM70.3409 95.532C70.2849 95.532 70.2329 95.524 70.1849 95.508C70.0329 95.476 69.9249 95.384 69.8609 95.232C69.8129 95.096 69.8249 94.944 69.8969 94.776C69.9769 94.608 70.0809 94.42 70.2089 94.212C70.2569 94.14 70.3009 94.068 70.3409 93.996C70.3889 93.916 70.4289 93.844 70.4609 93.78C70.4769 93.756 70.4889 93.736 70.4969 93.72C70.5049 93.696 70.5129 93.676 70.5209 93.66C70.2809 93.62 70.0009 93.612 69.6809 93.636C69.3689 93.652 69.0169 93.712 68.6249 93.816C68.2809 93.904 67.9089 94.02 67.5089 94.164C67.1169 94.3 66.7009 94.464 66.2609 94.656C66.1729 94.688 66.0849 94.688 65.9969 94.656C65.9089 94.624 65.8449 94.564 65.8049 94.476C65.7569 94.388 65.7529 94.296 65.7929 94.2C65.8329 94.096 65.8969 94.028 65.9849 93.996C66.4329 93.796 66.8609 93.624 67.2689 93.48C67.6849 93.328 68.0769 93.208 68.4449 93.12C69.4289 92.872 70.2329 92.832 70.8569 93C71.0409 93.048 71.1689 93.16 71.2409 93.336C71.3129 93.512 71.2969 93.708 71.1929 93.924C71.0889 94.14 70.9649 94.364 70.8209 94.596C70.8129 94.612 70.8009 94.632 70.7849 94.656C70.7689 94.68 70.7529 94.708 70.7369 94.74C70.9209 94.7 71.1929 94.62 71.5529 94.5C71.9129 94.38 72.4089 94.204 73.0409 93.972C73.1289 93.94 73.2169 93.948 73.3049 93.996C73.4009 94.036 73.4649 94.104 73.4969 94.2C73.5369 94.288 73.5369 94.38 73.4969 94.476C73.4569 94.564 73.3849 94.628 73.2809 94.668C72.9129 94.796 72.5769 94.912 72.2729 95.016C71.9689 95.12 71.6969 95.208 71.4569 95.28C71.1369 95.376 70.8929 95.444 70.7249 95.484C70.5569 95.516 70.4289 95.532 70.3409 95.532Z" fill="black"/>
<path fill-rule="evenodd" clip-rule="evenodd" d="M32.9928 10.0527C32.9928 4.96794 36.4301 1.00269 40.493 1.00269H88.4944C92.5573 1.00269 95.9946 4.96794 95.9946 10.0527V29.1528C95.9946 34.2376 92.5573 38.2028 88.4944 38.2028H40.493C36.4301 38.2028 32.9928 34.2376 32.9928 29.1528V10.0527ZM40.493 0.00268555C35.7192 0.00268555 31.9928 4.58883 31.9928 10.0527V19.1021H16.5004C12.0928 19.1021 7.88793 21.1929 4.80314 24.8753C1.72053 28.5551 0 33.5297 0 38.7022V172.403C0 177.575 1.72053 182.55 4.80314 186.23C7.88793 189.912 12.0928 192.003 16.5004 192.003H112.503C116.911 192.003 121.116 189.912 124.2 186.23C127.283 182.55 129.004 177.575 129.004 172.403V38.7022C129.004 33.5297 127.283 28.5551 124.2 24.8753C121.116 21.1929 116.911 19.1021 112.503 19.1021H96.9946V10.0527C96.9946 4.58883 93.2682 0.00268555 88.4944 0.00268555H40.493ZM96.9946 20.1021V29.1528C96.9946 34.6167 93.2682 39.2028 88.4944 39.2028H40.493C35.7192 39.2028 31.9928 34.6167 31.9928 29.1528V20.1021H16.5004C12.4209 20.1021 8.48623 22.0359 5.5697 25.5174C2.65098 29.0016 1 33.7433 1 38.7022V172.403C1 177.362 2.65098 182.103 5.5697 185.587C8.48623 189.069 12.4209 191.003 16.5004 191.003H112.503C116.583 191.003 120.517 189.069 123.434 185.587C126.353 182.103 128.004 177.362 128.004 172.403V38.7022C128.004 33.7433 126.353 29.0016 123.434 25.5174C120.517 22.0359 116.583 20.1021 112.503 20.1021H96.9946Z" fill="black"/>
</g>
<defs>
<clipPath id="clip0_988_257">
<rect width="129" height="192" fill="white"/>
</clipPath>
</defs>
</svg>
