<svg width="21" height="15" viewBox="0 0 21 15" fill="none" xmlns="http://www.w3.org/2000/svg">
<path d="M20.727 1.95922H19.3094V0.755427C19.3094 0.750369 19.3094 0.745732 19.3094 0.741096C19.3089 0.72924 19.3077 0.717419 19.3058 0.70569C19.3058 0.697682 19.3009 0.690516 19.2986 0.682929C19.2964 0.675342 19.2937 0.665648 19.2901 0.657218C19.2865 0.648788 19.2803 0.639515 19.2753 0.630664C19.2704 0.621812 19.2695 0.618862 19.2655 0.613382C19.2655 0.613382 19.2565 0.603266 19.2525 0.598208C19.2271 0.56815 19.195 0.54381 19.1583 0.526976L19.144 0.51981C19.137 0.517261 19.1298 0.515149 19.1225 0.513488C19.0955 0.504882 19.0672 0.50033 19.0387 0.5H0.271162C0.252952 0.500014 0.234787 0.501707 0.216929 0.505058C0.199455 0.508499 0.182352 0.513438 0.165834 0.51981H0.163593C0.121497 0.536544 0.0846303 0.56309 0.0564733 0.596944C0.0524395 0.602002 0.0479575 0.606217 0.0439237 0.611275C0.0439237 0.611275 0.0376489 0.622655 0.0345115 0.628556C0.0289016 0.637129 0.0238138 0.645995 0.0192726 0.655111C0.015687 0.663541 0.0138942 0.67197 0.011205 0.6804C0.00834552 0.687993 0.0059512 0.695733 0.00403381 0.703582C0.00178168 0.715135 0.000433459 0.726828 0 0.738567C0 0.743625 0 0.748261 0 0.753319V12.4844C-9.73302e-08 12.5525 0.0287432 12.6179 0.0799192 12.6661C0.131095 12.7143 0.200521 12.7414 0.272954 12.7415H2.77257V14.2433C2.77257 14.3114 2.80133 14.3767 2.85252 14.4248C2.90371 14.473 2.97313 14.5 3.04552 14.5H20.727C20.7994 14.5 20.8689 14.473 20.9201 14.4248C20.9712 14.3767 21 14.3114 21 14.2433V2.21633C21 2.14822 20.9713 2.08288 20.9201 2.03468C20.8689 1.98647 20.7995 1.95933 20.727 1.95922ZM18.132 1.01127L9.65469 6.31117L1.17698 1.01127H18.132ZM0.54546 1.23382L9.5032 6.8334C9.5481 6.86144 9.6008 6.8764 9.65469 6.8764C9.70859 6.8764 9.76129 6.86144 9.80618 6.8334L18.7635 1.23382V12.2277H0.54546V1.23382ZM20.4536 13.9875H3.31893V12.7415H19.0364C19.1089 12.7414 19.1783 12.7143 19.2295 12.6661C19.2806 12.6179 19.3094 12.5525 19.3094 12.4844V2.47302H20.4536V13.9875Z" fill="black"/>
</svg>
